<svg width="12" height="10" viewBox="0 0 12 10" fill="none" xmlns="http://www.w3.org/2000/svg">
<path d="M0.166656 1.66683C0.166656 1.20659 0.539753 0.833496 0.99999 0.833496H11C11.4602 0.833496 11.8333 1.20659 11.8333 1.66683C11.8333 2.12707 11.4602 2.50016 11 2.50016H0.99999C0.539753 2.50016 0.166656 2.12707 0.166656 1.66683Z" fill="#7C8B9D"/>
<path d="M0.166656 5.00016C0.166656 4.53993 0.539753 4.16683 0.99999 4.16683H11C11.4602 4.16683 11.8333 4.53993 11.8333 5.00016C11.8333 5.4604 11.4602 5.8335 11 5.8335H0.99999C0.539753 5.8335 0.166656 5.4604 0.166656 5.00016Z" fill="#7C8B9D"/>
<path d="M0.99999 7.50016C0.539753 7.50016 0.166656 7.87326 0.166656 8.3335C0.166656 8.79373 0.539753 9.16683 0.99999 9.16683H11C11.4602 9.16683 11.8333 8.79373 11.8333 8.3335C11.8333 7.87326 11.4602 7.50016 11 7.50016H0.99999Z" fill="#7C8B9D"/>
</svg>
