<svg width="111" height="31" viewBox="0 0 111 31" fill="none" xmlns="http://www.w3.org/2000/svg">
<g clip-path="url(#clip0_1_122)">
<path d="M74.9997 20.8255C74.535 20.9629 74.0188 21.0373 73.4395 21.0373C72.9175 21.0373 72.4184 20.9457 71.9366 20.7683C71.4548 20.5909 71.0246 20.3448 70.646 20.0358C70.2674 19.7267 69.9577 19.3547 69.7282 18.9255C69.4988 18.4963 69.3611 18.0213 69.321 17.5005H80.2883C80.2424 15.4917 80.1449 14.1067 79.795 13.1395C79.4451 12.1724 78.9575 11.3597 78.338 10.713C77.7185 10.0663 76.9786 9.57411 76.1297 9.24218C75.2807 8.91024 74.3515 8.75 73.3477 8.75C72.2636 8.75 71.2598 8.93314 70.3305 9.30513C69.4013 9.67713 68.5925 10.1922 67.9099 10.8618C67.2273 11.5314 66.6939 12.3383 66.3038 13.2883C65.9138 14.2384 65.7188 15.2914 65.7188 16.4532C65.7188 17.6321 65.9138 18.6851 66.3038 19.618C66.6939 20.5451 67.2331 21.3349 67.9271 21.9701C68.6212 22.6111 69.4357 23.1033 70.3764 23.4524C71.3171 23.8015 72.3496 23.9789 73.4739 23.9789C74.6727 23.9789 75.7396 23.7786 76.6861 23.4009C75.7167 22.9202 75.0456 21.9587 74.9997 20.8255ZM70.5714 12.4184C71.3229 11.7717 72.2406 11.4455 73.319 11.4455C73.8983 11.4455 74.4031 11.5428 74.8391 11.7317C75.2693 11.9205 75.6249 12.1781 75.906 12.4986C76.187 12.8191 76.3935 13.1853 76.5197 13.6088C76.6516 14.0266 76.7147 14.4673 76.7147 14.9251H69.321C69.4013 13.9007 69.82 13.0651 70.5714 12.4184Z" fill="black"/>
<path d="M78.0229 22.5257C79.0398 22.5257 79.8642 21.7032 79.8642 20.6886C79.8642 19.6741 79.0398 18.8516 78.0229 18.8516C77.006 18.8516 76.1816 19.6741 76.1816 20.6886C76.1816 21.7032 77.006 22.5257 78.0229 22.5257Z" fill="black"/>
<path d="M28.5668 12.6416C28.3775 11.9205 28.0391 11.2738 27.5573 10.6958C27.0754 10.1178 26.4215 9.64851 25.5898 9.28796C24.7581 8.92741 23.7027 8.75 22.4178 8.75C21.5516 8.75 20.6912 8.87018 19.8423 9.11055C20.565 9.66568 21.0411 10.5299 21.0411 11.5085C21.0411 11.5714 21.0239 11.6287 21.0239 11.6859C21.3796 11.6115 21.7467 11.5714 22.1195 11.5714C23.0201 11.5714 23.7944 11.7889 24.4483 12.2181C25.0965 12.6474 25.4235 13.3112 25.4235 14.2097V14.5703C24.2992 14.5703 23.1577 14.6275 21.9818 14.7363C20.8117 14.845 19.7448 15.0739 18.7811 15.4116C17.8175 15.7492 17.0316 16.2414 16.4236 16.8824C15.8099 17.5234 15.5059 18.3818 15.5059 19.4577C15.5059 20.299 15.6837 21.003 16.0336 21.5695C16.3835 22.1418 16.8251 22.5997 17.3529 22.9488C17.8806 23.2979 18.4657 23.5497 19.0966 23.6985C19.7276 23.8473 20.3356 23.9217 20.9149 23.9217C21.936 23.9217 22.848 23.7157 23.651 23.3093C24.4541 22.8973 25.0334 22.3765 25.3948 21.7355H25.4866V23.5669H28.8536V14.8107C28.8536 14.0838 28.7561 13.3627 28.5668 12.6416ZM25.4235 17.5005C25.4235 18.6394 25.1023 19.5379 24.4598 20.196C23.8174 20.8542 22.8767 21.1861 21.6377 21.1861C21.3394 21.1861 21.0354 21.1575 20.7371 21.0945C20.4389 21.0316 20.1635 20.9343 19.9283 20.7969C19.6874 20.6596 19.4924 20.4707 19.3433 20.2418C19.1941 20.0129 19.1196 19.7267 19.1196 19.3891C19.1196 18.8511 19.2974 18.4276 19.6588 18.1128C20.0201 17.8038 20.4675 17.5634 21.0125 17.3917C21.5516 17.22 22.1425 17.1113 22.7849 17.0598C23.4273 17.0083 24.0353 16.9854 24.6204 16.9854H25.4292V17.5005H25.4235Z" fill="black"/>
<path d="M18.0014 13.3343C19.0167 13.3343 19.8427 12.5102 19.8427 11.4972C19.8427 10.4843 19.0167 9.66016 18.0014 9.66016C16.9861 9.66016 16.1602 10.4843 16.1602 11.4972C16.1602 12.5102 16.9861 13.3343 18.0014 13.3343Z" fill="black"/>
<path d="M13.6976 12.4011C13.4968 11.7028 13.1813 11.0848 12.7511 10.5411C12.3209 10.0031 11.7703 9.56816 11.0991 9.23623C10.428 8.9043 9.61925 8.74405 8.67854 8.74405C8.13935 8.74405 7.63458 8.81273 7.1757 8.9558C6.71682 9.09315 6.30382 9.28201 5.94245 9.51093C5.58108 9.73985 5.2656 10.0031 4.996 10.2893C4.72641 10.5811 4.51991 10.873 4.38225 11.1763H4.32489V5.09277C3.81438 5.47621 3.18915 5.71086 2.50656 5.71086C1.83545 5.71086 1.22169 5.48766 0.722656 5.12139V23.5552H4.33062V15.6975C4.33062 15.2168 4.39946 14.7475 4.54286 14.2896C4.68052 13.8318 4.89276 13.414 5.17382 13.0478C5.45489 12.6758 5.80479 12.3839 6.22352 12.1607C6.64225 11.9432 7.14702 11.8288 7.72636 11.8288C8.3057 11.8288 8.77032 11.9489 9.12595 12.1893C9.47585 12.4297 9.74544 12.733 9.93473 13.105C10.124 13.477 10.2502 13.8833 10.3076 14.3354C10.3649 14.7875 10.3994 15.2225 10.3994 15.6403V23.5552H14.0073V14.5586C14.0016 13.8204 13.8983 13.105 13.6976 12.4011Z" fill="black"/>
<path d="M2.50728 4.51499C3.52256 4.51499 4.34855 3.69088 4.34855 2.67791C4.34855 1.66493 3.52256 0.84082 2.50728 0.84082C1.492 0.84082 0.666016 1.66493 0.666016 2.67791C0.666016 3.69088 1.492 4.51499 2.50728 4.51499Z" fill="black"/>
<path d="M92.3798 19.2689C92.8789 18.9141 93.4869 18.6966 94.1465 18.6966C94.8406 18.6966 95.4716 18.937 95.9878 19.3318V14.5646C95.9878 13.8263 95.8903 13.1052 95.6895 12.407C95.4888 11.7088 95.1733 11.0907 94.7431 10.547C94.3129 10.0091 93.7622 9.57411 93.0911 9.24218C92.42 8.91024 91.6112 8.75 90.6705 8.75C89.5864 8.75 88.6514 9.0247 87.8598 9.57411C87.0683 10.1235 86.5119 10.7588 86.1906 11.4799H86.1275V9.1735H82.7031V23.5611H86.3111V15.6405C86.3111 15.1598 86.3799 14.6848 86.5233 14.2155C86.661 13.7462 86.8675 13.3284 87.1371 12.9736C87.4067 12.613 87.7508 12.3212 88.1753 12.0865C88.594 11.8576 89.0988 11.7431 89.6782 11.7431C90.2575 11.7431 90.7221 11.8633 91.0777 12.1037C91.4276 12.344 91.703 12.6474 91.9037 13.0194C92.1045 13.3914 92.2364 13.8034 92.2938 14.2613C92.3511 14.7191 92.3856 15.1598 92.3856 15.5775V19.2689H92.3798Z" fill="black"/>
<path d="M94.146 23.5667C95.1629 23.5667 95.9872 22.7443 95.9872 21.7297C95.9872 20.7151 95.1629 19.8926 94.146 19.8926C93.129 19.8926 92.3047 20.7151 92.3047 21.7297C92.3047 22.7443 93.129 23.5667 94.146 23.5667Z" fill="black"/>
<path d="M46.1926 13.3341C45.8542 12.4127 45.3724 11.6172 44.7529 10.9362C44.1334 10.2552 43.3877 9.72291 42.5273 9.33375C41.6669 8.94458 40.7262 8.75 39.7051 8.75C39.0455 8.75 38.449 8.8244 37.9155 8.9732C37.3821 9.122 36.906 9.31086 36.4872 9.5455C36.0685 9.77442 35.7129 10.0377 35.4203 10.3238C35.1278 10.6157 34.8926 10.8961 34.7148 11.1766H34.623V9.16778H31.1699V26.5829C31.6804 26.2052 32.2999 25.9705 32.9825 25.9705C33.6536 25.9705 34.2674 26.1937 34.7722 26.5657V21.6382H34.8295C35.2884 22.3593 35.948 22.9259 36.797 23.3494C37.6459 23.7672 38.5866 23.9789 39.6076 23.9789C40.709 23.9789 41.6956 23.7729 42.5674 23.3666C43.4393 22.9545 44.1793 22.4051 44.793 21.7183C45.401 21.0316 45.8771 20.2189 46.2041 19.2918C46.5368 18.3647 46.6974 17.3688 46.6974 16.3101C46.7031 15.2399 46.531 14.2498 46.1926 13.3341ZM43.4278 17.9812C43.2558 18.5421 43.0034 19.04 42.6592 19.4806C42.3208 19.9213 41.8848 20.2819 41.3686 20.5623C40.8466 20.8427 40.2386 20.9801 39.5331 20.9801C38.8734 20.9801 38.2826 20.8427 37.7606 20.5737C37.2387 20.3047 36.7912 19.9499 36.4241 19.5093C36.0513 19.0686 35.7702 18.5764 35.5809 18.027C35.3916 17.4776 35.2941 16.9225 35.2941 16.3616C35.2941 15.8007 35.3859 15.2456 35.5809 14.6848C35.7702 14.1239 36.0513 13.626 36.4241 13.1853C36.797 12.7447 37.2387 12.3841 37.7606 12.1037C38.2826 11.8233 38.8734 11.6859 39.5331 11.6859C40.2329 11.6859 40.8466 11.8233 41.3686 12.0922C41.8906 12.3612 42.3208 12.716 42.6592 13.1567C42.9976 13.5974 43.2558 14.0896 43.4278 14.639C43.5999 15.1884 43.686 15.7435 43.686 16.3044C43.686 16.8595 43.5999 17.4204 43.4278 17.9812Z" fill="black"/>
<path d="M32.9819 30.8412C33.9988 30.8412 34.8232 30.0187 34.8232 29.0041C34.8232 27.9895 33.9988 27.167 32.9819 27.167C31.965 27.167 31.1406 27.9895 31.1406 29.0041C31.1406 30.0187 31.965 30.8412 32.9819 30.8412Z" fill="black"/>
<path d="M63.6028 13.3341C63.2643 12.4127 62.7825 11.6172 62.163 10.9362C61.5435 10.2552 60.7978 9.72291 59.9374 9.33375C59.077 8.94458 58.1363 8.75 57.1153 8.75C56.4557 8.75 55.8591 8.8244 55.3257 8.9732C54.7922 9.122 54.3161 9.31086 53.8974 9.5455C53.4787 9.77442 53.123 10.0377 52.8305 10.3238C52.5379 10.6157 52.3028 10.8961 52.1249 11.1766H52.0332V9.16778H48.5801V26.5829C49.0906 26.2052 49.7101 25.9705 50.3927 25.9705C51.0638 25.9705 51.6775 26.1937 52.1823 26.5657V21.6382H52.2397C52.6986 22.3593 53.3582 22.9259 54.2071 23.3494C55.0561 23.7672 55.9968 23.9789 57.0178 23.9789C58.1191 23.9789 59.1057 23.7729 59.9776 23.3666C60.8495 22.9545 61.5894 22.4051 62.2032 21.7183C62.8112 21.0316 63.2873 20.2189 63.6142 19.2918C63.9469 18.3647 64.1075 17.3688 64.1075 16.3101C64.1133 15.2399 63.9412 14.2498 63.6028 13.3341ZM60.838 17.9812C60.6659 18.5421 60.4135 19.04 60.0694 19.4806C59.7309 19.9213 59.295 20.2819 58.7788 20.5623C58.2568 20.8427 57.6488 20.9801 56.9432 20.9801C56.2836 20.9801 55.6928 20.8427 55.1708 20.5737C54.6488 20.3047 54.2014 19.9499 53.8343 19.5093C53.4614 19.0686 53.1804 18.5764 52.9911 18.027C52.8018 17.4776 52.7043 16.9225 52.7043 16.3616C52.7043 15.8007 52.7961 15.2456 52.9911 14.6848C53.1804 14.1239 53.4614 13.626 53.8343 13.1853C54.2071 12.7447 54.6488 12.3841 55.1708 12.1037C55.6928 11.8233 56.2836 11.6859 56.9432 11.6859C57.643 11.6859 58.2568 11.8233 58.7788 12.0922C59.3007 12.3612 59.7309 12.716 60.0694 13.1567C60.4078 13.5974 60.6659 14.0896 60.838 14.639C61.0101 15.1884 61.0961 15.7435 61.0961 16.3044C61.0961 16.8595 61.0101 17.4204 60.838 17.9812Z" fill="black"/>
<path d="M50.3921 30.8412C51.409 30.8412 52.2333 30.0187 52.2333 29.0041C52.2333 27.9895 51.409 27.167 50.3921 27.167C49.3751 27.167 48.5508 27.9895 48.5508 29.0041C48.5508 30.0187 49.3751 30.8412 50.3921 30.8412Z" fill="black"/>
<path d="M108.326 12.9505C109.347 12.9505 110.167 12.1264 110.167 11.1135C110.167 10.1005 109.341 9.27637 108.326 9.27637C107.305 9.27637 106.479 10.1005 106.479 11.1135C106.479 12.1264 107.31 12.9505 108.326 12.9505Z" fill="black"/>
<path d="M105.28 11.1077C105.28 10.3579 105.562 9.68263 106.015 9.15039H98.4316V12.0348H105.441C105.344 11.7429 105.28 11.4339 105.28 11.1077Z" fill="black"/>
<path d="M108.476 14.1348C108.425 14.1348 108.379 14.1519 108.327 14.1519C107.094 14.1519 106.039 13.4194 105.562 12.3721L99.6543 18.696C99.7403 18.6903 99.8206 18.6731 99.9067 18.6731C101.094 18.6731 102.115 19.3599 102.614 20.3499L108.476 14.1348Z" fill="black"/>
<path d="M102.744 20.6309C102.87 20.9685 102.951 21.3291 102.951 21.7068C102.951 22.4164 102.698 23.0574 102.291 23.5725H110.534V20.6309H102.744Z" fill="black"/>
<path d="M99.9057 19.8643C98.8847 19.8643 98.0645 20.6884 98.0645 21.7071C98.0645 22.7258 98.8904 23.5442 99.9057 23.5442C100.927 23.5442 101.747 22.72 101.747 21.7071C101.747 20.6884 100.921 19.8643 99.9057 19.8643Z" fill="black"/>
</g>
<defs>
<clipPath id="clip0_1_122">
<rect width="110" height="30" fill="white" transform="translate(0.666016 0.84082)"/>
</clipPath>
</defs>
</svg>
