<svg width="185" height="49" viewBox="0 0 185 49" fill="none" xmlns="http://www.w3.org/2000/svg">
<g clip-path="url(#clip0_1_148)">
<path d="M148.104 22.0265C149.318 22.5349 150.382 23.2151 151.281 24.0599C152.181 24.912 152.888 25.9 153.395 27.0385C153.902 28.1769 154.152 29.3726 154.152 30.6327C154.152 31.9215 153.902 33.1315 153.395 34.27C152.888 35.4084 152.188 36.4036 151.281 37.2485C150.382 38.1005 149.318 38.7664 148.104 39.2604C146.89 39.7544 145.569 39.9979 144.148 39.9979C142.727 39.9979 141.406 39.7544 140.192 39.2604C138.979 38.7664 137.915 38.0934 137.015 37.2485C136.115 36.3965 135.408 35.4084 134.901 34.27C134.394 33.1315 134.145 31.9215 134.145 30.6327C134.145 29.3726 134.394 28.1769 134.901 27.0385C135.408 25.9 136.108 24.9048 137.015 24.0599C137.915 23.2079 138.979 22.5349 140.192 22.0265C141.406 21.5182 142.727 21.2676 144.148 21.2676C145.569 21.2676 146.883 21.5253 148.104 22.0265ZM146.647 38.7234C147.247 38.2151 147.69 37.5492 147.983 36.733C148.268 35.9096 148.447 34.9645 148.518 33.8976C148.59 32.8308 148.618 31.7497 148.618 30.6471C148.618 29.5516 148.582 28.4776 148.518 27.4179C148.447 26.3654 148.275 25.4203 147.983 24.6041C147.697 23.7807 147.254 23.1148 146.647 22.6065C146.048 22.0981 145.212 21.8475 144.148 21.8475C143.084 21.8475 142.249 22.0981 141.649 22.6065C141.049 23.1148 140.607 23.7807 140.314 24.6041C140.028 25.4275 139.85 26.3654 139.778 27.4179C139.707 28.4704 139.678 29.5516 139.678 30.6471C139.678 31.7425 139.714 32.8237 139.778 33.8976C139.85 34.9645 140.021 35.9096 140.314 36.733C140.599 37.5564 141.042 38.2222 141.649 38.7234C142.249 39.2318 143.084 39.4824 144.148 39.4824C145.212 39.4824 146.048 39.2246 146.647 38.7234Z" fill="black"/>
<path d="M101.905 31.2491C100.227 31.2491 98.8707 32.6095 98.8707 34.2921C98.8707 35.6382 99.7419 36.7766 100.949 37.1775C100.963 37.1775 100.97 37.1847 100.977 37.1847C101.156 37.242 101.334 37.2778 101.52 37.3064C101.855 37.3637 101.97 37.5355 101.948 37.7647C101.898 38.1155 101.498 38.5809 100.999 38.8673C100.249 39.2754 99.3206 39.483 98.2281 39.483C97 39.483 96.0431 39.2253 95.3577 38.7026C94.6722 38.1799 94.1581 37.5141 93.8011 36.705C93.444 35.8959 93.2298 34.9938 93.1441 33.9914C93.0585 32.989 93.0228 31.9938 93.0228 31.0129V29.1656H105.119C105.119 27.7694 104.876 26.5666 104.383 25.5713C103.89 24.5689 103.262 23.7599 102.498 23.1226C101.734 22.4926 100.87 22.0272 99.9132 21.7265C98.9564 21.4257 97.9996 21.2754 97.0428 21.2754C95.7004 21.2754 94.4508 21.5403 93.2941 22.0773C92.1302 22.6143 91.1234 23.3088 90.2594 24.1752C89.3954 25.0415 88.7242 26.0296 88.2316 27.1537C87.7389 28.2778 87.4961 29.4305 87.4961 30.6047C87.4961 32.0868 87.7531 33.4043 88.2744 34.5713C88.7956 35.7384 89.5097 36.7265 90.4237 37.5284C91.3376 38.3374 92.4087 38.9532 93.644 39.3756C94.8721 39.7981 96.2002 40.0129 97.6212 40.0129C98.8208 40.0129 99.849 39.841 100.699 39.4973C101.548 39.1537 102.255 38.7312 102.834 38.2229C103.205 37.9007 103.512 37.5499 103.783 37.1919C103.79 37.1775 103.805 37.1632 103.812 37.1489C103.855 37.0916 103.898 37.0343 103.94 36.9771C104.097 36.7551 104.247 36.5117 104.362 36.2539C104.369 36.2468 104.369 36.2324 104.369 36.2253C104.476 36.0176 104.569 35.81 104.647 35.6167C104.662 35.5809 104.683 35.5451 104.697 35.5093C104.754 35.3804 104.797 35.2444 104.84 35.1012C104.847 35.0725 104.862 35.0439 104.869 35.0152C104.869 35.0081 104.862 35.0081 104.862 35.0009C104.869 34.9866 104.869 34.9651 104.869 34.9508C104.869 34.9365 104.876 34.9293 104.883 34.915H104.876C104.919 34.7145 104.947 34.5069 104.947 34.2921C104.947 32.6095 103.583 31.2491 101.905 31.2491ZM93.1727 26.3446C93.237 25.5642 93.4012 24.8339 93.644 24.168C93.8867 23.495 94.2652 22.9436 94.7721 22.4997C95.2791 22.063 95.9932 21.841 96.9214 21.841C97.5783 21.841 98.0924 21.9914 98.4566 22.2921C98.8279 22.5928 99.0921 22.9651 99.2563 23.4019C99.4205 23.8386 99.5134 24.2826 99.5419 24.7193C99.5705 25.1561 99.5848 25.5284 99.5848 25.8291V28.5857H93.0228C93.0585 27.8768 93.1013 27.125 93.1727 26.3446Z" fill="black"/>
<path d="M131.023 38.9025V21.8477H124.775V22.4204H126.018V38.9025H124.775V39.4825H132.266V38.9025H131.023Z" fill="black"/>
<path d="M127.611 15.9697C127.611 15.9769 127.611 15.9769 127.611 15.9697C127.618 15.9769 127.625 15.9769 127.64 15.9769C127.818 16.0342 127.997 16.07 128.182 16.0986C128.882 16.2132 128.654 16.8719 128.097 17.3731C127.975 17.4805 128.089 17.6738 128.239 17.6165C129.111 17.323 130.646 16.1917 131.353 14.3015C131.41 14.1726 131.453 14.0366 131.495 13.8934C131.503 13.8647 131.517 13.8361 131.524 13.8074C131.524 13.8003 131.517 13.8003 131.517 13.7931C131.574 13.564 131.603 13.3206 131.603 13.0771C131.603 11.3946 130.246 10.0342 128.568 10.0342C126.89 10.0342 125.533 11.3946 125.533 13.0771C125.533 14.4304 126.404 15.5688 127.611 15.9697Z" fill="black"/>
<path d="M50.3164 38.9029L40.9268 26.7812L40.534 26.2871L37.0781 29.4518H36.871V9.84082H30.666V10.4136H31.8656V38.9029H30.666V39.4828H37.9064V38.9029H36.871V30.0246H37.0781L44.0043 38.9029H41.0553V39.4828H51.9158V38.9029H50.3164Z" fill="black"/>
<path d="M44.947 27.8125C44.9399 27.8125 44.947 27.8125 44.947 27.8125C44.9541 27.8197 44.9613 27.8197 44.9756 27.8197C45.1541 27.877 45.3326 27.9128 45.5182 27.9414C46.218 28.056 45.9895 28.7147 45.4325 29.2159C45.3112 29.3233 45.4254 29.5166 45.5753 29.4593C46.4465 29.1657 47.9817 28.0345 48.6886 26.1443C48.7457 26.0154 48.7885 25.8793 48.8314 25.7361C48.8385 25.7075 48.8528 25.6789 48.8599 25.6502C48.8599 25.6431 48.8528 25.6431 48.8528 25.6359C48.9099 25.4068 48.9385 25.1633 48.9385 24.9199C48.9385 23.2373 47.5818 21.877 45.9038 21.877C44.2258 21.877 42.8691 23.2373 42.8691 24.9199C42.8691 26.2731 43.7403 27.4116 44.947 27.8125Z" fill="black"/>
<path d="M68.3395 38.9024C68.3395 38.8737 68.3395 27.0671 68.3395 27.0671C68.3395 25.9143 68.1396 24.962 67.7469 24.2102C67.347 23.4585 66.8186 22.857 66.1474 22.4203C65.4762 21.9835 64.6836 21.6828 63.7697 21.5181C63.7197 21.511 63.6697 21.5038 63.6197 21.4966V21.4895C60.2138 20.7663 58.1216 21.2675 57.2576 21.4966C56.308 21.7544 54.7585 22.4704 53.8017 23.9883C53.716 24.1029 53.4233 24.6255 53.3019 25.1267C52.9234 26.7663 54.0088 28.3845 55.6511 28.7281C57.2933 29.0718 58.8999 28.0193 59.2427 26.3725C59.514 25.0551 58.8999 23.7592 57.8003 23.1219C57.786 23.1148 57.7789 23.1148 57.7717 23.1076C57.6147 23.0145 57.4433 22.9429 57.2648 22.8785C56.7792 22.6924 56.8435 22.227 57.2434 21.9907C57.6932 21.7258 59.0213 21.4537 61.142 21.6756C61.8918 21.7544 62.5058 22.0909 62.8129 22.5993C63.1699 23.2007 63.3484 23.8737 63.3484 24.6112V30.4752L59.5354 30.4823C58.75 30.4823 57.2005 30.5539 55.9867 30.9334C55.3369 31.141 54.7728 31.4704 54.2658 31.8356C53.7589 32.2079 53.3518 32.6589 53.0377 33.1888C52.7235 33.7258 52.5664 34.5492 52.5664 35.3439C52.5664 36.11 52.7449 36.9048 53.1019 37.4418C53.459 37.9787 54.0016 38.394 54.5657 38.7234C55.6796 39.3821 57.9288 39.4752 58.5858 39.4752C58.7071 39.4752 58.8285 39.4752 58.9571 39.4752H65.4977H67.1399H69.5177V38.8952H68.3395V38.9024ZM63.3341 38.8737C63.3198 38.8737 61.0706 38.8737 60.7136 38.8737C60.0852 38.8737 59.3426 38.7592 58.9856 38.4728C58.6286 38.1864 58.3644 37.8355 58.1859 37.4274C58.0074 37.0193 57.9003 36.5897 57.8574 36.153C57.8146 35.7162 57.7932 35.3296 57.7932 35.0002C57.7932 34.1768 57.9217 32.9597 58.1859 32.4441C58.2145 32.394 58.243 32.3367 58.2787 32.2795C58.7571 31.5062 59.6354 31.0623 60.5494 31.0623H63.3341V38.8737Z" fill="black"/>
<path d="M123.176 25.1339C123.062 24.6256 122.762 24.1101 122.676 23.9955C121.72 22.4776 120.07 21.6614 119.22 21.5039C116.75 21.0456 114.722 21.3965 113.544 21.8475H107.639V22.4203H108.803V38.9024H107.639V39.4752H115.536V38.9024H113.801L113.722 22.3058C115.257 21.6685 117.921 21.554 119.228 21.9907C119.67 22.1339 119.692 22.6924 119.206 22.8786C119.028 22.943 118.856 23.0146 118.699 23.1077C118.692 23.1148 118.678 23.1148 118.671 23.122C117.571 23.7664 116.95 25.0552 117.228 26.3726C117.571 28.0194 119.178 29.0719 120.82 28.7282C122.469 28.3917 123.555 26.7664 123.176 25.1339Z" fill="black"/>
<path d="M79.7204 26.3802C80.0632 28.027 81.6697 29.0795 83.312 28.7358C84.9543 28.3921 86.0397 26.7668 85.6612 25.1344C85.547 24.626 85.2471 24.1105 85.1614 23.9959C84.2046 22.478 82.7765 21.7191 81.7054 21.5043C80.2917 21.225 79.0207 21.225 77.971 21.3611V9.7334H77.5069C77.5069 9.7334 76.8571 13.0699 72.9799 13.0699V22.3563C71.7732 22.478 70.5236 22.4136 69.7524 22.1558C69.731 22.1487 69.7167 22.1344 69.6953 22.1272V22.6284C69.7167 22.6355 69.7382 22.6427 69.7596 22.6427C70.9449 22.879 72.0302 22.9148 72.9728 22.8432V35.0795C72.9728 35.5735 73.0013 36.1105 73.0513 36.6833C73.1084 37.2561 73.3155 37.7931 73.6868 38.2871C74.0581 38.7811 74.6293 39.1892 75.4076 39.5186C76.1859 39.848 77.2855 40.0126 78.7065 40.0126C79.2277 40.0126 79.7704 39.9625 80.3488 39.8694C80.92 39.7692 81.4627 39.5759 81.9696 39.2752C82.4766 38.9744 82.9265 38.5449 83.3192 37.9792C83.7119 37.4207 83.9975 36.669 84.1617 35.7382L83.5477 35.6165C83.4406 36.0246 83.2978 36.4542 83.1192 36.8909C82.9407 37.3277 82.7122 37.7215 82.4409 38.0651C82.1696 38.4088 81.8483 38.6881 81.477 38.91C81.1057 39.132 80.663 39.2394 80.1417 39.2394C79.6776 39.2394 79.2991 39.1606 79.0135 38.9959C78.7279 38.8313 78.5066 38.6021 78.3566 38.3157C78.2067 38.0293 78.1067 37.7071 78.0496 37.3491C77.9924 36.9912 77.971 36.6117 77.971 36.1964V21.8623C79.3277 21.6618 80.8343 21.7048 81.7197 21.9983C82.1624 22.1415 82.1839 22.7 81.6983 22.8861C81.5198 22.9506 81.3484 23.0222 81.1913 23.1153C81.1842 23.1224 81.1699 23.1224 81.1628 23.1296C80.0703 23.7668 79.4491 25.0628 79.7204 26.3802Z" fill="black"/>
</g>
<defs>
<clipPath id="clip0_1_148">
<rect width="124" height="30" fill="white" transform="translate(30.666 9.84082)"/>
</clipPath>
</defs>
</svg>
