<svg width="97" height="31" viewBox="0 0 97 31" fill="none" xmlns="http://www.w3.org/2000/svg">
<path fill-rule="evenodd" clip-rule="evenodd" d="M20.9426 16.6538C20.0445 16.4643 17.3692 15.7941 14.7719 17.5522C14.7692 17.5511 14.7665 17.5501 14.7637 17.5493C14.5089 17.7145 14.2439 17.8633 13.9703 17.995C13.1469 18.375 12.2512 18.5717 11.3448 18.5717C10.4384 18.5717 9.54278 18.375 8.7194 17.995C7.91704 17.6188 7.19293 17.0937 6.58532 16.4475C5.97331 15.7945 5.48338 15.0365 5.13892 14.2097C4.78689 13.365 4.60562 12.4587 4.60562 11.5433C4.60562 10.6279 4.78689 9.72155 5.13892 8.8769C5.47874 8.04762 5.96919 7.28883 6.58532 6.6391C7.19586 5.9998 7.91942 5.47966 8.71924 5.10509C9.54263 4.72512 10.4383 4.52838 11.3447 4.52838C12.2511 4.52838 13.1467 4.72512 13.9701 5.10509C14.7701 5.47963 15.4938 5.99977 16.1045 6.6391C16.7205 7.28887 17.2109 8.04766 17.5506 8.8769C17.9028 9.7215 18.0842 10.6278 18.0842 11.5433C18.0842 12.4588 17.9028 13.3651 17.5506 14.2097C17.5016 14.3254 17.4447 14.4351 17.3906 14.5466C18.7739 14.418 20.1684 14.4895 21.5314 14.7588C21.8621 13.7169 22.0281 12.6294 22.0234 11.536C22.0306 10.1085 21.7432 8.69499 21.1792 7.38428C20.091 4.81923 18.054 2.77666 15.4959 1.68541C14.1806 1.11851 12.7625 0.831018 11.3309 0.841075C9.90867 0.832924 8.50017 1.12041 7.19428 1.68541C4.63566 2.77638 2.59836 4.81924 1.51044 7.38477C0.946257 8.69541 0.658837 10.109 0.666284 11.5365C0.655964 12.9687 0.943464 14.3873 1.51044 15.7018C2.60463 18.2598 4.6405 20.2961 7.19428 21.3869C8.49999 21.9523 9.90852 22.2399 11.3308 22.2314C12.7623 22.2418 14.1805 21.9542 15.4956 21.3869C15.8662 21.2235 16.228 21.0406 16.5794 20.839C16.6192 20.823 16.6663 20.8054 16.7004 20.7893C17.5149 20.4051 18.0501 20.1814 18.9861 20.2127C20.8066 20.2732 21.2175 21.1633 21.318 21.887H25.862C25.862 20.6427 24.8026 17.4681 20.9426 16.6538ZM40.8263 6.59321H37.0112V15.2027H37.0146C37.0086 16.0538 36.6672 16.8679 36.0649 17.4676C35.4626 18.0673 34.6483 18.4038 33.7995 18.4038C32.9507 18.4038 32.1363 18.0673 31.534 17.4676C30.9317 16.8679 30.5904 16.0538 30.5844 15.2027H30.5882V6.59321H26.772V15.2027C26.772 17.0715 27.5124 18.8637 28.8303 20.1851C30.1482 21.5065 31.9356 22.2489 33.7994 22.2489C35.6632 22.2489 37.4506 21.5065 38.7685 20.1851C40.0864 18.8637 40.8268 17.0715 40.8268 15.2027V6.59321H40.8263ZM92.85 6.59321V11.7316H92.8517C92.8497 12.1824 92.7523 12.6277 92.5661 13.0381C92.3799 13.4484 92.109 13.8146 91.7714 14.1123L91.7797 14.1133C93.7957 14.4142 95.297 15.8289 95.3181 15.8491C96.1915 14.6547 96.663 13.2126 96.6645 11.7316H96.6663V6.59321H92.8504H92.85ZM96.6663 21.9609C96.6663 21.9543 96.6663 21.9481 96.6663 21.9417V21.9139H96.665C96.6596 20.9613 96.4598 20.0198 96.0778 19.1475C95.6958 18.2752 95.1398 17.4906 94.4439 16.842L94.448 16.8383C93.856 16.3025 92.5525 15.0439 89.6383 14.9391C87.8668 14.875 86.4288 13.5036 86.4244 11.7317H86.4274V6.59321H82.6116V11.7109C82.6109 11.7148 82.6106 11.7189 82.6106 11.7229C82.6136 13.5515 83.3268 15.307 84.599 16.6172C85.8712 17.9273 87.6023 18.6891 89.4253 18.741C89.4692 18.7427 89.669 18.7496 89.6845 18.7491C90.5196 18.7598 91.3176 19.0968 91.9087 19.6884C92.4998 20.28 92.8373 21.0795 92.8495 21.9168V23.8057H92.8532C92.8533 23.8078 92.8533 23.8098 92.8532 23.8119C92.8472 24.663 92.5058 25.4771 91.9035 26.0768C91.3012 26.6765 90.4868 27.013 89.638 27.013C88.7892 27.013 87.9749 26.6765 87.3726 26.0768C86.7703 25.4771 86.4289 24.663 86.4229 23.8119C86.4229 23.8054 86.425 22.8394 86.425 22.8333C86.425 22.8333 82.6111 22.846 82.6104 22.8526C82.1528 27.6027 85.7573 30.8411 89.6386 30.8411C91.5001 30.8434 93.2863 30.1042 94.6042 28.7861C95.9222 27.468 96.6639 25.6789 96.6663 23.8124C96.6665 23.8096 96.6665 23.8067 96.6663 23.8039V21.9758C96.6663 21.971 96.6663 21.9659 96.6663 21.9609ZM55.6117 24.5332C55.4421 25.1037 55.1694 25.6381 54.8074 26.1099C54.4408 26.5804 53.9786 26.9675 53.4516 27.2454C52.8406 27.5363 52.1728 27.6872 51.4964 27.6872C50.8201 27.6872 50.1523 27.5363 49.5413 27.2454C49.0145 26.9675 48.5526 26.5805 48.1863 26.1099C47.824 25.6383 47.5514 25.1038 47.3823 24.5332C47.2153 23.9851 47.127 23.416 47.12 22.8429H43.2703C43.2641 23.9437 43.4829 25.0341 43.9133 26.0469C44.3208 27.0022 44.9157 27.8657 45.6628 28.5858C46.4193 29.3036 47.3085 29.8662 48.2804 30.2419C50.3503 31.0408 52.6424 31.0408 54.7124 30.2419C55.6842 29.8662 56.5735 29.3036 57.33 28.5858C58.0769 27.8654 58.6719 27.0021 59.0799 26.0469C59.5097 25.034 59.7285 23.9437 59.7228 22.8429H55.874C55.8666 23.416 55.7783 23.985 55.6117 24.5332ZM61.5368 6.70006C55.88 6.63124 55.5298 11.9175 55.7668 13.0114H55.7508C55.831 13.3882 55.8739 13.772 55.8788 14.1572C55.8771 14.756 55.7869 15.3513 55.6111 15.9235C55.4415 16.494 55.1688 17.0283 54.8068 17.5001C54.4401 17.9706 53.978 18.3577 53.4509 18.6357C52.8399 18.9265 52.1721 19.0773 51.4958 19.0773C50.8195 19.0773 50.1517 18.9265 49.5407 18.6357C49.014 18.3577 48.5524 17.9706 48.1863 17.5001C47.8239 17.0286 47.5514 16.4941 47.3823 15.9235C47.2061 15.3511 47.1157 14.7556 47.1143 14.1566C47.1152 13.5628 47.2055 12.9727 47.3823 12.406C47.5542 11.8415 47.8266 11.3129 48.1863 10.8457C48.551 10.3774 49.0139 9.99512 49.5421 9.72589C50.156 9.44566 50.8227 9.30066 51.4972 9.30066C52.1718 9.30066 52.8385 9.44566 53.4524 9.72589C53.8665 9.94647 54.2396 10.237 54.5552 10.5848C54.5676 10.5308 54.5712 10.4735 54.5847 10.4197C54.7667 9.62716 55.1103 8.88093 55.594 8.22797C55.7853 7.97782 56.0015 7.74791 56.2394 7.54182C55.7589 7.23342 55.247 6.97702 54.7125 6.7769C52.635 6.01998 50.3581 6.01998 48.2805 6.7769C47.3094 7.13173 46.4192 7.6786 45.6629 8.38503C44.9168 9.09378 44.3217 9.94677 43.9135 10.8925C43.4716 11.9229 43.2513 13.0351 43.2669 14.1566C43.2522 15.2831 43.4724 16.4003 43.9133 17.4365C44.3208 18.3919 44.9157 19.2552 45.6628 19.9753C46.4193 20.6931 47.3085 21.2557 48.2804 21.6314C50.3503 22.4305 52.6424 22.4305 54.7124 21.6314C55.6842 21.2558 56.5735 20.6932 57.33 19.9753C58.0769 19.255 58.6719 18.3917 59.0799 17.4365C59.5204 16.4002 59.7406 15.2831 59.7264 14.1566C59.7264 13.9498 59.7112 13.7512 59.6983 13.5508L59.7208 13.554V13.3442C59.7218 12.9533 59.7535 12.563 59.8154 12.1771C59.8741 11.7913 59.9967 11.4181 60.1783 11.073C60.3582 10.7355 60.6249 10.4524 60.9508 10.2532C61.326 10.045 61.7494 9.93988 62.1781 9.9484H63.9773V6.69797L61.5368 6.70006ZM80.23 10.8165C79.9051 9.86961 79.3856 9.00168 78.705 8.26888C78.0583 7.58999 77.2689 7.06391 76.3943 6.72878C75.4655 6.3759 74.4792 6.19989 73.486 6.20979C72.4054 6.20028 71.333 6.39778 70.3263 6.79166C69.3737 7.15849 68.5073 7.71958 67.7822 8.43944C67.057 9.1593 66.4887 10.0223 66.1133 10.9737C65.6936 12.0284 65.4853 13.1557 65.5002 14.2912C65.4812 15.4272 65.6897 16.5555 66.1133 17.6093C66.4951 18.5451 67.0742 19.387 67.8109 20.0773C68.5541 20.7609 69.425 21.2901 70.3733 21.6343C71.4113 22.0103 72.5081 22.1967 73.6117 22.1847C75.7474 22.2181 77.819 21.4534 79.4232 20.0395L77.3648 17.6032C77.036 17.9416 76.1405 18.4929 75.97 18.5839C75.3198 18.9301 74.5232 19.1031 73.5802 19.1027C73.0434 19.1043 72.5108 19.0084 72.0082 18.8194C71.5185 18.6389 71.0618 18.3787 70.6564 18.0494C70.262 17.73 69.9359 17.3342 69.6975 16.8856C69.4528 16.4233 69.3082 15.9144 69.2732 15.3922C69.1911 14.4927 69.1911 13.5875 69.2732 12.688C69.3018 12.1845 69.4322 11.6922 69.6564 11.2408C69.8807 10.7894 70.1942 10.3885 70.5778 10.0623C71.3773 9.37565 72.4025 9.01098 73.4548 9.03894C73.9989 9.02661 74.5397 9.12847 75.0423 9.33797C75.4624 9.51456 75.8382 9.78246 76.1426 10.1223C76.4469 10.4622 76.6723 10.8656 76.8023 11.3034C76.9397 11.7515 77.0087 12.218 77.0068 12.6869H70.5648V15.3919H80.7485C80.7696 15.2249 80.7802 15.0569 80.7805 14.8886V14.386C80.8041 13.1732 80.6178 11.9655 80.23 10.8165Z" fill="black"/>
</svg>
