<svg width="37" height="35" viewBox="0 0 37 35" fill="none" xmlns="http://www.w3.org/2000/svg">
<path d="M18.5523 1C8.75951 1 0.820923 8.3873 0.820923 17.5C0.820923 26.6126 8.75951 34 18.5523 34C28.3449 34 36.2836 26.6126 36.2836 17.5C36.2836 8.3873 28.3449 1 18.5523 1Z" stroke="black" strokeLinecap="round" strokeLinejoin="round"/>
<path d="M4.84772 27.9704C4.84772 27.9704 8.80007 23.275 18.5523 23.275C28.3045 23.275 32.257 27.9704 32.257 27.9704" stroke="black" strokeLinecap="round" strokeLinejoin="round"/>
<path d="M18.5523 17.5C21.4902 17.5 23.8717 15.2839 23.8717 12.55C23.8717 9.81623 21.4902 7.60004 18.5523 7.60004C15.6143 7.60004 13.2328 9.81623 13.2328 12.55C13.2328 15.2839 15.6143 17.5 18.5523 17.5Z" stroke="black" strokeLinecap="round" strokeLinejoin="round"/>
</svg>
