<svg width="93" height="26" viewBox="0 0 93 26" fill="none" xmlns="http://www.w3.org/2000/svg">
<path fill-rule="evenodd" clip-rule="evenodd" d="M0.0107422 20.3097C0.0107422 23.5727 3.16577 25.9959 7.16271 25.9959C10.8445 25.9959 14.3147 23.9931 14.3147 20.5036C14.3147 17.4021 11.6148 15.1729 9.12646 12.9427C6.98963 11.004 4.9543 9.03275 4.9543 6.48061C4.9543 4.02495 6.07613 3.41153 7.23323 3.41153C8.53028 3.41153 9.51216 4.25142 9.51216 6.70707C9.51216 7.28898 9.4769 7.9349 9.44164 8.41934H14.1427C14.1427 5.31777 11.2323 2.95861 7.44584 2.95861C3.94037 2.95861 0.539607 4.79985 0.539607 8.12789C0.539607 11.4884 3.16898 13.7176 5.65838 15.8828C7.8668 17.8215 9.93204 19.7228 9.93204 22.3813C9.93204 24.8695 8.59973 25.5479 7.44263 25.5479C6.11032 25.5479 4.95323 24.708 4.95323 22.2848C4.95323 21.6389 4.98849 20.863 5.02374 20.3156H0.0107422V20.3097ZM21.8769 25.6729V19.1458L23.4197 17.3361L28.0481 25.6719H33.0622L26.5042 13.7826L31.0268 8.54832H30.3292L21.8801 18.306V-0.0139771H17.147V25.6729H21.8801H21.8769ZM38.2621 5.96368C38.6111 5.96585 38.9569 5.90357 39.2793 5.78052C39.6017 5.65747 39.8941 5.47615 40.1392 5.24725C40.3843 5.01835 40.5771 4.74652 40.7063 4.4478C40.8355 4.14909 40.8985 3.82954 40.8915 3.50803C40.8881 3.02543 40.7295 2.55461 40.4357 2.15509C40.142 1.75558 39.7262 1.44533 39.2411 1.26358C38.756 1.08183 38.2233 1.03674 37.7104 1.13402C37.1974 1.2313 36.7273 1.46658 36.3595 1.8101C35.9917 2.15361 35.7427 2.58994 35.644 3.06389C35.5452 3.53784 35.6013 4.02813 35.8049 4.47274C36.0086 4.91735 36.3507 5.29632 36.7881 5.5617C37.2255 5.82709 37.7385 5.96698 38.2621 5.96368ZM40.6126 25.6729V8.54832H35.8796V25.6729H40.6126ZM54.6089 25.6729H59.342V13.4636C59.3815 12.7776 59.2664 12.0914 59.0039 11.4485C58.7413 10.8055 58.3371 10.2196 57.8166 9.72783C57.2961 9.23604 56.6706 8.84898 55.9797 8.59106C55.2888 8.33315 54.5474 8.20997 53.8022 8.2293C52.7388 8.2016 51.6911 8.47058 50.7964 9.00101C49.9017 9.53144 49.2017 10.2986 48.7882 11.2019V8.54832H44.0551V25.6729H48.7882V13.0077C48.7882 11.1664 50.051 9.80864 51.7338 9.80864C53.4165 9.80864 54.6089 11.1655 54.6089 13.0077V25.6729ZM73.3062 25.6729H78.0392V13.4636C78.0788 12.7776 77.9637 12.0914 77.7011 11.4485C77.4386 10.8055 77.0343 10.2196 76.5138 9.72783C75.9933 9.23604 75.3679 8.84898 74.677 8.59106C73.9861 8.33315 73.2447 8.20997 72.4995 8.2293C71.4361 8.2016 70.3884 8.47058 69.4937 9.00101C68.5989 9.53144 67.899 10.2986 67.4854 11.2019V8.54832H62.7523V25.6729H67.4854V13.0077C67.4854 11.1664 68.7483 9.80864 70.431 9.80864C72.1138 9.80864 73.3062 11.1655 73.3062 13.0077V25.6729ZM86.3408 16.8635C87.5442 16.8668 88.7215 16.541 89.7238 15.9273C90.7261 15.3136 91.5083 14.4396 91.9713 13.416C92.4342 12.3924 92.5573 11.2652 92.3247 10.1771C92.0921 9.08901 91.5145 8.089 90.6649 7.30366C89.8152 6.51832 88.7319 5.98298 87.5519 5.7654C86.3719 5.54783 85.1484 5.65782 84.0363 6.08144C82.9242 6.50506 81.9736 7.22326 81.3046 8.14511C80.6357 9.06696 80.2786 10.151 80.2786 11.26C80.2548 12.0005 80.3952 12.7378 80.6913 13.4266C80.9874 14.1154 81.433 14.7413 82.0007 15.2659C82.5685 15.7905 83.2464 16.2027 83.993 16.4774C84.7397 16.7521 85.5393 16.8835 86.3429 16.8635H86.3408ZM86.3408 16.6597C85.1822 16.6595 84.0497 16.3427 83.0865 15.7493C82.1233 15.156 81.3726 14.3128 80.9294 13.3263C80.4862 12.3398 80.3703 11.2543 80.5965 10.2071C80.8226 9.15994 81.3806 8.19808 82.1999 7.44316C83.0193 6.68824 84.0631 6.17416 85.1994 5.96593C86.3357 5.7577 87.5136 5.86467 88.5839 6.27331C89.6543 6.68196 90.5692 7.37392 91.2128 8.26171C91.8565 9.1495 92.2 10.1932 92.2 11.261C92.2248 11.976 92.0902 12.6881 91.8047 13.3533C91.5191 14.0185 91.0886 14.6227 90.5397 15.1285C89.9908 15.6344 89.3352 16.0312 88.6133 16.2943C87.8915 16.5575 87.1188 16.6815 86.3429 16.6587L86.3408 16.6597ZM83.4967 14.9651H85.626V11.322H85.9156L87.6357 14.9651H89.9179L87.9595 11.1822C88.3713 11.076 88.7356 10.8513 88.9989 10.5407C89.2623 10.2302 89.4109 9.85012 89.4232 9.45614C89.4012 9.18034 89.3193 8.91143 89.1823 8.66541C89.0453 8.41939 88.8559 8.20128 88.6256 8.02407C88.3952 7.84686 88.1285 7.71417 87.8414 7.6339C87.5542 7.55362 87.2525 7.52741 86.9541 7.55681H83.4967V14.9651ZM86.0171 7.76161C86.7158 7.76161 87.2265 8.49909 87.2265 9.45614C87.2265 10.4132 86.7158 11.1202 86.0171 11.1202H85.626V7.76062H86.0171V7.76161Z" fill="black"/>
</svg>
