<svg width="123" height="31" viewBox="0 0 123 31" fill="none" xmlns="http://www.w3.org/2000/svg">
<path fill-rule="evenodd" clip-rule="evenodd" d="M29.054 20.2687C29.0668 23.6374 30.7683 26.5237 34.094 26.5237C36.996 26.5237 37.8707 25.2304 38.5015 23.7904H43.9282C43.1049 26.5553 40.6749 30.8029 33.9446 30.8029C26.6856 30.8029 23.5965 25.2543 23.5965 19.4546C23.5965 12.5976 27.1164 7.51704 34.1758 7.51704C41.7054 7.51704 44.2361 13.1212 44.2361 18.4022C44.2505 19.0247 44.2258 19.6476 44.1623 20.267H29.054V20.2687ZM38.7979 16.8478C38.7542 13.8977 37.4403 11.4624 34.1497 11.4624C30.8557 11.4624 29.481 13.7293 29.1845 16.8478H38.7979ZM18.1352 8.03677C15.7127 15.5051 13.4569 22.1966 12.8552 25.4672H12.8123C12.2898 22.7578 10.3701 16.0972 7.9425 8.03656H0.666016C1.68655 8.03656 2.5257 9.14373 2.63611 9.52521L9.78328 30.284H15.5398L23.5567 8.03677H18.1352ZM122.666 19.1062C122.666 25.7566 118.717 30.8408 111.681 30.8408C104.89 30.8408 100.88 25.8949 100.88 19.2108C100.88 12.4172 104.947 7.45886 111.962 7.45886C118.451 7.45886 122.666 12.1008 122.666 19.1062ZM106.415 19.1499C106.415 23.651 108.478 26.5439 111.826 26.5439C115.23 26.5439 117.131 23.7118 117.131 19.1799C117.131 14.3872 115.212 11.756 111.737 11.756C108.408 11.756 106.415 14.3003 106.415 19.1499ZM83.4066 12.1162V7.98102H76.2153C77.1791 7.98102 77.8595 8.64994 77.9475 9.33913C77.9636 10.6666 77.9713 12.1857 77.9713 14.0451V30.3221H83.4066V20.2083C83.4066 14.2439 86.1911 12.0935 90.7386 12.1243V7.99095C86.9513 8.04244 84.4597 9.40501 83.4066 12.1162ZM52.5931 12.1162V7.98102H45.4018C46.3658 7.98102 47.0461 8.64994 47.1342 9.33913C47.15 10.6666 47.1578 12.1857 47.1578 14.0451V30.3221H52.5931V20.2083C52.5931 14.2439 55.3787 12.0935 59.9251 12.1243V7.99095C56.138 8.04244 53.6468 9.40501 52.5931 12.1162ZM92.9387 7.98021V30.3193H98.3742V7.98021H92.9387ZM98.361 0.84082H92.9387V7.03683C92.9421 7.03683 92.9452 7.03683 92.9486 7.03683C94.381 7.0377 95.7552 6.47197 96.7697 5.46382C97.7841 4.45567 98.3558 3.08748 98.3594 1.65954L98.361 0.84082ZM74.8794 12.1243V7.98001H70.2896V7.97494H64.8543V7.98001H61.2476V12.1243H64.8543V24.6284C64.8543 28.4708 66.336 30.6235 70.4218 30.6235C71.6159 30.6235 73.1871 30.597 74.328 30.2015V26.4004C73.7989 26.4805 73.2641 26.5169 72.729 26.5093C70.8144 26.5093 70.289 25.697 70.289 23.8419V12.1243H74.8788H74.8794ZM70.2625 1.65852V0.84082H64.8419V7.03663C64.8453 7.03663 64.8484 7.03663 64.8518 7.03663C66.2843 7.03717 67.6584 6.47123 68.6728 5.46298C69.6871 4.45472 70.2589 3.0865 70.2625 1.65852Z" fill="black"/>
</svg>
